# xmcd
#
# Track frame offsets:
#	183
#	12278
#	28878
#	42193
#	55065
#	69953
#	87845
#	103038
#	117733
#	132318
#	146703
#	164190
#
# Disc length: 2473 seconds
#
# Revision: 1
# Processed by: cddbd v1.4PL0 Copyright (c) Steve Scherf et al.
# Submitted via: audiograbber 1.81.03
#
DISCID=ad09a70c
DTITLE=Ferroblues - Mondongo
DYEAR=1994
DGENRE=Blues
TTITLE0=Good for Nothing
TTITLE1=Try
TTITLE2=Pressure Cooker Song
TTITLE3=You Shouldn't Bo So Good
TTITLE4=Pack It Up
TTITLE5=To The Bone
TTITLE6=Getting Rid Of You
TTITLE7=Papa's Got A Brand New Bag
TTITLE8=Lay Down
TTITLE9=She's Ready
TTITLE10=Action
TTITLE11=Madhouse Blues
EXTD=
EXTT0=
EXTT1=
EXTT2=
EXTT3=
EXTT4=
EXTT5=
EXTT6=
EXTT7=
EXTT8=
EXTT9=
EXTT10=
EXTT11=
PLAYORDER=
